<svg width="33" height="32" viewBox="0 0 33 32" fill="none" xmlns="http://www.w3.org/2000/svg">
<path fill-rule="evenodd" clip-rule="evenodd" d="M7.3414 9.4785C7.07092 9.39061 6.78625 9.56664 6.74403 9.84789L6.2374 13.2227C6.16482 13.7061 6.45239 14.1711 6.9173 14.3222L24.1766 19.9301C24.983 20.1921 25.8492 19.7508 26.1113 18.9443C26.3837 18.106 25.8959 17.211 25.0438 16.9855L19.7321 15.5801L18.404 6.20694C18.3489 5.81804 18.0771 5.49448 17.7035 5.3731C17.0776 5.16971 16.4243 5.59852 16.3619 6.25375L15.6018 14.2381L8.34558 12.2955L7.64227 9.79175C7.60066 9.6436 7.48775 9.52605 7.3414 9.4785ZM26.1775 22.9518H5.64746V24.531H26.1775V22.9518Z" fill="#B7C1D2"/>
</svg>
